<svg width="78" height="74" viewBox="0 0 78 74" fill="none" xmlns="http://www.w3.org/2000/svg">
<g clip-path="url(#clip0_0_97)">
<path d="M6.7832 0.121094H21.5596" stroke="white" stroke-width="2"/>
<path d="M21.4375 0V52.1639" stroke="white" stroke-width="2"/>
<path d="M21.3164 52.2852H36.0928" stroke="white" stroke-width="2"/>
<path d="M35.8516 0.121094L70.2491 0.121106" stroke="white" stroke-width="2"/>
<path d="M70.092 0.156738L77.8435 7.92066" stroke="white" stroke-width="2"/>
<path d="M77.6367 7.76392V31.7836" stroke="white" stroke-width="2"/>
<path d="M77.8435 31.627L70.3342 39.1483" stroke="white" stroke-width="2"/>
<path d="M70.3342 38.9763L77.8435 46.4976" stroke="white" stroke-width="2"/>
<path d="M77.6367 46.3411V66.964" stroke="white" stroke-width="2"/>
<path d="M58.3786 39.1836H50.1426" stroke="white" stroke-width="2"/>
<path d="M58.5 39.0623V66.7213" stroke="white" stroke-width="2"/>
<path d="M70.9752 66.8425H58.3789" stroke="white" stroke-width="2"/>
<path d="M50.2998 66.8074L35.7656 52.25" stroke="white" stroke-width="2"/>
<path d="M50.2637 66.7211V46.0981" stroke="white" stroke-width="2"/>
<path d="M7.11079 0.0859375L0.0859375 7.12201" stroke="white" stroke-width="2"/>
<path d="M77.8432 66.8071L70.8184 73.8432" stroke="white" stroke-width="2"/>
<path d="M77.8432 7.84961L70.8184 14.8857" stroke="white" stroke-width="2"/>
<path d="M21.3998 1.05957L14.6172 7.36777" stroke="white" stroke-width="2"/>
<path d="M70.3334 0.328613L63.3086 7.36469" stroke="white" stroke-width="2"/>
<path d="M35.9389 0.0844727L29.1562 7.12054" stroke="white" stroke-width="2"/>
<path d="M50.2301 39.1465L43.4474 46.1826" stroke="white" stroke-width="2"/>
<path d="M21.644 52.25L14.6191 59.2861" stroke="white" stroke-width="2"/>
<path d="M58.4661 39.1465L51.6835 46.1826" stroke="white" stroke-width="2"/>
<path d="M70.3334 39.1479L63.5508 45.9414" stroke="white" stroke-width="2"/>
<path d="M50.2301 66.8054L43.4474 73.8415" stroke="white" stroke-width="2"/>
<path d="M58.7065 66.8071L51.6816 73.8432" stroke="white" stroke-width="2"/>
<path d="M0 73.8787H43.6025" stroke="white" stroke-width="2"/>
<path d="M0 7.15747H14.7764" stroke="white" stroke-width="2"/>
<path d="M14.6562 7.03613V59.2001" stroke="white" stroke-width="2"/>
<path d="M14.5332 59.3213H29.3096" stroke="white" stroke-width="2"/>
<path d="M29.0683 7.15747H63.4658" stroke="white" stroke-width="2"/>
<path d="M63.3086 7.19287L71.0601 14.9568" stroke="white" stroke-width="2"/>
<path d="M70.8535 14.7998V38.8195" stroke="white" stroke-width="2"/>
<path d="M63.3086 45.77L71.0601 53.534" stroke="white" stroke-width="2"/>
<path d="M70.8535 53.377V73.7573" stroke="white" stroke-width="2"/>
<path d="M51.5954 46.2197H43.6016" stroke="white" stroke-width="2"/>
<path d="M51.7168 46.0981V73.7572" stroke="white" stroke-width="2"/>
<path d="M70.9746 73.8789H51.5957" stroke="white" stroke-width="2"/>
<path d="M0.121094 7.03613V74.0001" stroke="white" stroke-width="2"/>
<path d="M43.5166 73.8435L28.9824 59.2861" stroke="white" stroke-width="2"/>
<path d="M29.1895 7.27881V52.4067" stroke="white" stroke-width="2"/>
<path d="M43.4805 59.9277V46.0981" stroke="white" stroke-width="2"/>
</g>
<defs>
<clipPath id="clip0_0_97">
<rect width="78" height="74" fill="white"/>
</clipPath>
</defs>
</svg>
